<svg id="Layer_1" data-name="Layer 1" xmlns="http://www.w3.org/2000/svg" viewBox="0 0 46.79 46.67"><defs><style>.cls-1{fill:#fff;}</style></defs><path class="cls-1" d="M24.56,50.56a6,6,0,0,1,2.12,6.92,23.35,23.35,0,0,0,4.22,1.23c.11,0,.23,0,.34.06A6,6,0,0,1,36.68,54h0a6,6,0,0,1,6.07,3.95A24.09,24.09,0,0,0,47.08,56a6,6,0,0,1,8.28-8,23.69,23.69,0,0,0,2.06-4.27,6,6,0,0,1-3.76-6.19h0a2.85,2.85,0,0,1,.08-.51,6,6,0,0,1,4.87-4.75,24.26,24.26,0,0,0-1.17-4.64,6,6,0,0,1-6.86-2.3l0,0h0l-.06-.1a5.94,5.94,0,0,1-.87-4.42A6,6,0,0,1,50.93,18a23.57,23.57,0,0,0-3.85-2.78A6,6,0,0,1,36,12.11a23.81,23.81,0,0,0-4.72.35,6,6,0,0,1-10.53,4.75,24.65,24.65,0,0,0-3.4,3.3,6,6,0,0,1-5,10.4l-.06.27a24.08,24.08,0,0,0-.42,4.44,6,6,0,0,1,2.83,11.19,23.77,23.77,0,0,0,2.67,3.92A6,6,0,0,1,24.56,50.56Zm-2-17.4A13,13,0,1,1,32.87,48.42,13,13,0,0,1,22.53,33.16Z" transform="translate(-11.82 -12.1)"/></svg>